<?xml version="1.0" encoding="UTF-8" standalone="no"?>
<svg
   version="1.0"
   width="2047.6202pt"
   height="1871.7385pt"
   viewBox="0 0 2047.6202 1871.7385"
   preserveAspectRatio="xMidYMid"
   id="svg10"
   sodipodi:docname="DFS-Lucka-logo.svg"
   inkscape:version="1.2.2 (732a01da63, 2022-12-09)"
   xmlns:inkscape="http://www.inkscape.org/namespaces/inkscape"
   xmlns:sodipodi="http://sodipodi.sourceforge.net/DTD/sodipodi-0.dtd"
   xmlns="http://www.w3.org/2000/svg"
   xmlns:svg="http://www.w3.org/2000/svg">
  <defs
     id="defs14" />
  <sodipodi:namedview
     id="namedview12"
     pagecolor="#ffffff"
     bordercolor="#666666"
     borderopacity="1.0"
     inkscape:showpageshadow="2"
     inkscape:pageopacity="0.0"
     inkscape:pagecheckerboard="0"
     inkscape:deskcolor="#d1d1d1"
     inkscape:document-units="pt"
     showgrid="false"
     inkscape:zoom="0.19999536"
     inkscape:cx="765.01774"
     inkscape:cy="820.01902"
     inkscape:window-width="1920"
     inkscape:window-height="1027"
     inkscape:window-x="-8"
     inkscape:window-y="-8"
     inkscape:window-maximized="1"
     inkscape:current-layer="svg10" />
  <g
     transform="matrix(0.1,0,0,-0.1,-205,2058.7385)"
     fill="#000000"
     stroke="none"
     id="g8">
    <path
       d="m 15820,20563 c -113,-14 -206,-29 -208,-33 -2,-5 -9,-7 -16,-4 -7,3 -105,-11 -217,-30 l -204,-34 -490,-212 c -609,-264 -794,-365 -1110,-606 -177,-135 -232,-184 -482,-436 -154,-156 -383,-400 -508,-543 -125,-143 -234,-263 -243,-266 -19,-7 -86,65 -138,147 -54,86 -538,621 -708,783 -119,113 -365,321 -380,321 -3,0 -20,14 -38,30 -18,17 -211,136 -428,264 l -395,234 -420,160 c -405,154 -423,160 -515,166 -52,4 -239,22 -416,41 l -320,34 -285,-14 c -156,-8 -419,-29 -584,-46 -267,-27 -332,-38 -590,-95 -557,-124 -815,-195 -1095,-301 -556,-211 -1122,-504 -1550,-804 -153,-107 -228,-174 -693,-613 -76,-71 -147,-136 -158,-144 -11,-7 -17,-18 -14,-23 4,-5 -1,-12 -9,-15 -9,-3 -77,-79 -153,-168 -205,-241 -366,-494 -575,-899 -197,-383 -275,-575 -354,-870 -29,-111 -69,-256 -89,-322 -28,-96 -40,-166 -60,-345 -14,-124 -38,-326 -55,-450 -43,-326 -43,-570 0,-1105 38,-482 37,-522 -21,-599 -22,-29 -74,-81 -116,-115 -107,-87 -133,-126 -133,-198 l 1,-58 55,-44 c 61,-49 99,-59 231,-60 94,-1 101,-10 119,-170 8,-66 19,-132 26,-148 6,-15 10,-32 9,-37 -1,-4 30,-153 69,-330 57,-255 89,-374 157,-581 47,-143 90,-262 95,-263 4,-2 6,-7 3,-11 -18,-30 322,-879 509,-1271 62,-129 196,-391 299,-582 103,-191 187,-354 187,-364 0,-20 189,-334 201,-334 5,0 8,-4 6,-9 -4,-17 345,-554 567,-871 368,-528 610,-794 1074,-1183 344,-288 720,-494 1086,-597 281,-78 312,-90 350,-129 l 35,-36 -11,-180 -11,-180 33,-115 c 58,-204 167,-325 360,-400 135,-52 234,-58 466,-32 227,26 242,27 265,6 17,-16 17,-19 -16,-84 -19,-37 -55,-145 -81,-241 -44,-165 -46,-179 -41,-269 5,-89 8,-100 47,-167 38,-66 50,-78 128,-128 173,-109 156,-102 314,-123 l 148,-20 92,29 c 51,16 133,36 183,44 123,20 123,20 101,-122 -25,-168 -23,-202 26,-318 35,-85 53,-113 122,-188 74,-82 88,-93 195,-146 103,-52 129,-60 231,-76 109,-17 120,-17 215,-1 181,31 384,100 553,187 174,90 214,103 254,80 25,-14 28,-21 28,-71 0,-30 -10,-84 -22,-120 -17,-54 -22,-97 -26,-255 -4,-187 -4,-193 33,-380 l 36,-190 101,-217 c 178,-386 245,-464 554,-645 105,-61 204,-113 220,-115 16,-2 31,-5 34,-8 12,-13 132,-41 215,-50 50,-5 227,-10 395,-10 292,0 310,1 415,26 233,54 584,266 901,543 158,138 164,145 314,352 144,200 158,224 262,443 99,209 116,254 179,471 60,204 77,281 114,515 51,316 61,354 101,387 37,29 43,29 112,-6 115,-57 501,-111 805,-111 137,0 164,3 282,32 112,27 143,40 236,94 102,61 109,67 177,161 l 70,98 6,140 c 13,261 24,368 40,384 14,13 20,11 54,-16 21,-17 69,-46 108,-66 60,-30 82,-35 162,-39 121,-7 237,21 346,83 66,37 86,56 145,134 67,88 69,92 93,205 l 25,115 -18,218 c -28,342 -28,343 -4,339 11,-2 54,-19 95,-39 149,-72 359,-72 581,2 148,49 263,129 472,327 84,80 312,293 507,474 452,420 853,839 1198,1251 139,166 254,306 254,310 0,4 8,13 18,20 9,7 139,176 288,376 218,292 299,411 416,605 79,133 160,261 178,284 19,24 45,68 58,98 12,30 99,207 191,392 218,437 389,860 587,1458 138,415 144,435 231,838 83,378 95,448 146,841 77,596 119,1180 110,1526 -4,167 -12,273 -26,350 -10,61 -35,220 -54,354 -19,134 -53,338 -75,455 -40,206 -44,220 -191,621 -129,350 -166,439 -252,605 -197,383 -495,794 -824,1141 -131,138 -367,349 -390,349 -3,0 -11,6 -17,14 -6,8 -122,104 -258,213 l -247,198 -423,236 c -385,215 -439,242 -604,303 -99,37 -187,69 -195,70 -8,2 -32,11 -54,21 -22,9 -139,55 -260,100 -121,46 -236,90 -255,98 -47,20 -810,197 -848,197 -16,0 -184,23 -373,51 -302,45 -380,52 -639,64 -391,19 -478,17 -720,-12 z m 1390,-642 c 178,-31 313,-64 645,-156 407,-114 505,-149 505,-181 0,-19 -122,-18 -210,1 -85,19 -241,4 -745,-71 -341,-51 -385,-60 -565,-114 -294,-89 -472,-157 -718,-274 -316,-150 -563,-304 -952,-597 l -315,-236 -267,-284 c -316,-337 -548,-621 -754,-924 -170,-250 -306,-465 -296,-465 4,0 2,-4 -4,-8 -54,-35 -368,-615 -619,-1142 -92,-193 -395,-928 -395,-959 0,-15 -34,-75 -60,-106 -10,-11 -25,-60 -35,-110 -18,-96 -32,-130 -62,-158 -19,-17 -21,-14 -67,89 -27,59 -59,148 -73,198 -35,128 -301,765 -492,1179 -431,933 -950,1742 -1486,2317 -245,262 -543,524 -829,729 -227,162 -296,208 -296,196 0,-3 -6,0 -14,8 -8,7 -99,61 -203,119 -274,154 -595,289 -916,384 -224,66 -285,80 -552,123 -388,63 -534,79 -788,85 -115,3 -213,8 -219,12 -20,13 113,75 210,99 53,13 223,63 377,110 l 280,86 305,41 305,40 306,-11 305,-10 305,-55 c 365,-66 649,-133 742,-175 38,-17 76,-31 86,-31 9,0 40,-16 68,-35 29,-19 63,-35 76,-35 14,0 193,-93 398,-206 560,-308 684,-403 1203,-913 103,-102 260,-267 349,-366 88,-99 166,-187 174,-195 53,-59 207,-262 258,-341 74,-113 115,-149 171,-149 36,0 46,7 130,93 62,63 110,123 150,190 39,65 126,178 252,325 375,440 805,817 1333,1169 212,142 298,192 505,296 206,103 292,139 494,210 135,47 283,96 330,108 47,13 87,27 88,31 2,5 8,6 12,3 5,-3 53,6 107,19 152,38 436,66 766,75 485,13 451,14 697,-28 z m 1063,-1006 c 379,-38 482,-52 605,-80 62,-14 117,-23 123,-20 5,4 9,2 9,-3 0,-6 15,-13 34,-16 19,-4 180,-51 358,-105 279,-85 348,-110 506,-185 100,-47 194,-89 210,-92 57,-14 370,-179 506,-266 77,-51 245,-168 371,-261 204,-150 253,-191 433,-370 201,-200 204,-204 321,-387 119,-186 143,-227 162,-276 9,-26 9,-26 -13,-12 -13,8 -36,34 -51,57 -16,22 -36,41 -45,41 -9,0 -43,32 -75,70 -36,42 -122,119 -225,200 -137,108 -200,149 -350,230 -155,84 -213,109 -380,164 -165,55 -232,71 -412,102 -208,35 -221,36 -395,30 -270,-8 -437,-42 -739,-150 -227,-80 -243,-87 -443,-207 -114,-68 -230,-144 -258,-170 -27,-26 -111,-103 -185,-171 -122,-112 -149,-144 -277,-324 l -141,-199 -106,-255 c -104,-252 -106,-258 -145,-460 -55,-289 -60,-432 -25,-759 l 26,-244 74,-191 c 138,-353 182,-449 250,-545 35,-51 64,-102 64,-115 0,-15 14,-33 44,-54 24,-17 85,-77 137,-133 52,-56 105,-113 119,-125 14,-13 61,-58 105,-99 65,-62 129,-106 345,-234 240,-143 281,-164 430,-219 144,-52 187,-63 338,-86 219,-33 423,-35 684,-6 161,18 213,29 435,91 l 252,70 219,124 c 186,106 235,138 321,216 55,50 101,95 101,100 0,5 5,9 11,9 17,0 167,141 197,185 15,22 30,42 33,45 3,3 58,75 122,161 99,131 130,183 202,332 47,96 89,178 94,181 4,3 16,-2 24,-12 23,-26 10,-66 -82,-252 -43,-85 -106,-216 -142,-290 -84,-177 -264,-460 -400,-629 -61,-75 -185,-212 -277,-304 -145,-145 -210,-201 -489,-415 -318,-243 -327,-250 -660,-440 -544,-311 -803,-430 -1468,-674 -417,-152 -796,-269 -1262,-390 -219,-56 -400,-106 -401,-110 -2,-5 -8,-6 -12,-3 -9,6 -302,-64 -310,-74 -3,-3 -14,-7 -25,-7 -11,-1 -253,-47 -538,-102 -285,-56 -629,-117 -765,-137 -1519,-215 -1482,-210 -2282,-279 -939,-81 -1209,-93 -1670,-76 -246,9 -345,10 -374,2 -32,-9 -162,-2 -640,33 -1027,76 -1570,155 -2416,351 -250,58 -482,112 -515,119 -249,55 -414,99 -705,190 -605,188 -1012,358 -1695,707 -307,157 -371,194 -657,384 -299,198 -332,222 -600,454 -228,197 -311,275 -426,405 -78,88 -157,176 -175,196 -180,201 -271,315 -293,366 -24,56 9,103 73,103 48,0 160,-67 333,-201 144,-110 190,-139 348,-218 100,-50 182,-89 182,-85 0,3 6,-1 13,-8 8,-7 113,-37 233,-66 212,-50 226,-52 439,-62 196,-9 243,-8 440,11 208,20 231,24 430,81 204,58 215,62 400,164 174,95 207,118 382,263 179,148 204,172 355,354 137,165 169,210 203,284 21,48 45,92 52,96 15,9 47,78 134,284 46,110 66,176 90,290 29,142 30,162 36,478 l 5,330 -45,235 -46,235 -92,205 c -132,297 -139,319 -130,379 6,39 20,65 64,120 32,38 57,75 57,80 0,6 4,11 9,11 15,0 98,114 134,185 l 35,70 -15,75 -15,75 -62,45 -62,45 -76,-3 -76,-4 -103,-111 c -144,-157 -183,-187 -237,-187 -40,0 -54,9 -215,138 -157,126 -191,148 -382,249 -374,197 -489,227 -948,249 l -298,14 -287,-46 -287,-46 -180,-87 c -162,-78 -334,-180 -343,-203 -2,-4 -8,-8 -14,-8 -5,0 -65,-38 -131,-84 -100,-69 -159,-122 -329,-294 -164,-165 -209,-205 -213,-191 -9,27 26,88 158,274 66,94 138,195 159,225 74,108 302,345 453,473 223,188 400,302 834,539 470,257 650,333 1015,427 285,74 674,161 721,161 19,0 35,4 35,9 0,4 10,6 23,4 12,-2 157,9 322,26 l 301,29 354,-15 355,-14 345,-79 c 323,-74 356,-84 511,-149 176,-74 411,-205 594,-330 167,-114 317,-246 571,-503 434,-437 852,-971 986,-1257 27,-58 52,-108 56,-111 4,-3 8,-14 10,-25 2,-11 45,-87 96,-170 52,-84 145,-259 211,-397 65,-136 136,-280 159,-320 23,-40 91,-188 151,-328 60,-140 124,-278 142,-307 18,-29 33,-55 33,-58 0,-3 54,-125 121,-273 66,-147 142,-330 169,-407 52,-151 97,-263 155,-390 58,-127 106,-258 100,-272 -2,-8 8,-37 24,-66 16,-29 54,-111 84,-182 86,-201 212,-440 241,-453 22,-10 28,-6 63,36 22,26 46,65 53,87 48,152 776,1877 875,2075 40,80 116,242 170,360 108,240 247,532 256,540 3,3 52,93 109,200 89,167 431,745 450,760 12,10 130,169 130,176 0,4 6,12 14,18 8,6 101,126 206,266 528,699 1145,1186 1805,1425 183,65 235,80 429,116 203,38 240,42 456,49 485,14 649,12 913,-15 z m 420,-2048 c 8,-23 18,-64 21,-92 9,-73 150,-366 288,-599 66,-110 139,-237 164,-283 26,-47 57,-90 72,-99 15,-9 58,-62 97,-118 144,-211 495,-539 855,-801 243,-176 248,-179 526,-315 267,-131 293,-142 520,-210 131,-39 248,-78 259,-85 11,-7 54,-18 95,-25 112,-20 142,-35 138,-68 -2,-21 -14,-33 -51,-53 -47,-25 -51,-26 -110,-13 -34,7 -84,22 -112,33 -27,10 -147,47 -265,81 -118,34 -244,76 -280,93 -315,145 -343,161 -721,420 -325,222 -396,275 -542,407 -216,194 -395,402 -566,655 -70,105 -145,222 -166,260 -21,39 -44,73 -49,77 -6,4 -8,8 -5,8 4,0 -26,60 -65,134 -40,73 -103,208 -139,300 -81,201 -87,253 -36,310 16,19 36,33 43,30 8,-3 21,-24 29,-47 z m -12403,-92 c 0,-34 -23,-68 -90,-129 -98,-91 -395,-401 -412,-431 -4,-7 -108,-109 -231,-227 -337,-324 -994,-866 -1382,-1141 -165,-116 -308,-220 -317,-229 -10,-10 -18,-15 -18,-11 0,3 -8,-1 -17,-9 -10,-8 -53,-34 -96,-57 -43,-23 -178,-110 -300,-193 -207,-141 -311,-196 -343,-184 -22,9 -26,61 -7,101 15,31 40,50 149,115 72,43 164,95 205,115 83,42 319,201 319,216 0,5 4,8 9,7 10,-3 745,506 779,539 12,13 24,22 26,20 10,-8 471,385 611,522 190,186 759,730 934,894 98,92 119,107 148,107 29,0 33,-3 33,-25 z m 12123,-201 c 7,-41 7,-40 -120,-200 -40,-50 -73,-99 -73,-109 0,-9 -33,-121 -74,-249 -74,-228 -75,-234 -101,-459 l -27,-228 22,-192 c 19,-175 26,-207 77,-362 47,-145 108,-287 132,-305 3,-3 7,-10 8,-16 7,-39 135,-234 240,-364 96,-118 153,-178 242,-253 130,-110 335,-234 461,-278 41,-14 152,-54 247,-88 l 172,-61 209,-18 c 201,-18 214,-18 343,0 74,9 168,22 209,27 44,6 152,37 265,76 154,54 223,84 365,162 96,53 212,125 257,160 100,77 142,97 178,83 52,-20 29,-57 -85,-141 -261,-191 -362,-252 -540,-325 -156,-64 -197,-76 -375,-112 -178,-36 -228,-42 -451,-53 l -252,-13 -173,49 c -326,91 -643,263 -905,487 -71,62 -146,131 -166,153 -218,242 -333,416 -432,656 -88,213 -125,395 -135,664 -6,176 -5,205 21,388 24,172 36,224 87,380 53,164 68,197 150,335 113,190 153,242 191,242 24,0 28,-5 33,-36 z M 6624,16312 c 8,-15 41,-99 74,-188 71,-191 116,-385 141,-609 15,-139 16,-180 5,-310 -11,-146 -14,-158 -98,-427 -47,-152 -86,-291 -86,-309 0,-45 -131,-258 -238,-386 -52,-63 -169,-179 -294,-293 l -208,-189 -188,-100 c -169,-90 -205,-105 -377,-156 -248,-74 -319,-85 -594,-85 h -225 l -234,61 c -234,60 -235,60 -453,169 -194,98 -227,118 -299,184 -88,79 -123,125 -110,146 13,21 99,-19 160,-75 69,-63 278,-179 436,-240 108,-42 146,-51 414,-94 l 295,-48 185,14 c 176,13 194,16 370,69 119,36 213,71 265,99 44,24 118,63 165,87 131,68 340,226 478,362 282,278 458,634 527,1066 61,385 11,782 -146,1144 -41,94 -55,148 -44,166 9,14 61,-24 79,-58 z m 11896,22 c 0,-24 212,-442 282,-555 15,-25 28,-53 28,-62 0,-9 20,-31 44,-49 28,-21 67,-70 110,-138 95,-151 365,-448 592,-652 365,-328 758,-568 1306,-798 223,-94 248,-107 259,-134 12,-29 11,-31 -47,-83 -71,-65 -176,-117 -429,-213 -158,-60 -205,-73 -385,-106 -113,-21 -218,-37 -234,-36 -60,3 -433,63 -481,77 -27,8 -144,50 -258,93 l -208,79 -177,135 c -97,74 -187,141 -199,149 -13,8 -23,17 -23,21 0,4 -64,91 -142,192 l -143,185 -97,223 -98,223 -33,235 -33,236 37,254 c 44,309 76,413 176,578 92,153 153,211 153,146 z M 6454,16131 c 30,-49 45,-97 90,-287 48,-206 54,-244 60,-382 6,-143 4,-169 -30,-400 l -37,-247 -107,-230 c -102,-222 -110,-235 -223,-380 -103,-134 -132,-163 -264,-271 -133,-109 -166,-131 -319,-207 -152,-76 -191,-91 -350,-133 -130,-34 -230,-53 -364,-69 l -184,-22 -198,33 c -157,25 -232,44 -368,89 -163,54 -177,61 -313,152 -146,98 -217,157 -217,180 0,7 30,28 68,47 37,19 82,46 101,60 19,14 42,26 51,26 9,0 88,53 176,117 87,64 238,169 334,232 96,63 253,178 348,254 340,272 948,796 1077,927 72,72 136,135 143,139 7,4 105,99 216,210 155,154 212,205 237,211 19,4 35,8 36,9 1,1 18,-25 37,-58 z M 2665,14290 c 31,-56 72,-133 90,-172 l 33,-72 -21,-43 c -17,-35 -33,-49 -86,-77 -94,-48 -106,-51 -118,-24 -6,13 -8,37 -6,53 3,17 -5,93 -17,170 -18,115 -21,163 -15,270 9,180 11,185 50,82 18,-48 58,-132 90,-187 z m 19545,-527 c 1,-5 5,-28 9,-52 7,-34 4,-63 -14,-130 -13,-47 -47,-212 -75,-366 -60,-326 -240,-1018 -339,-1300 -32,-93 -64,-186 -71,-205 -7,-19 -66,-172 -133,-340 -103,-263 -158,-381 -394,-854 l -274,-548 -228,-347 c -173,-263 -280,-413 -449,-629 -122,-155 -222,-285 -222,-289 0,-3 -6,-11 -14,-17 -7,-6 -80,-95 -160,-199 -194,-246 -495,-569 -802,-858 -136,-129 -345,-328 -464,-443 -308,-300 -451,-422 -618,-528 -125,-78 -156,-94 -248,-119 -101,-28 -110,-29 -212,-20 -84,7 -129,17 -207,46 -133,50 -237,126 -468,345 -100,94 -193,182 -207,195 -14,12 -70,45 -125,72 -175,88 -260,81 -433,-35 -109,-74 -194,-173 -276,-322 l -57,-105 -17,-162 -16,-161 33,-153 c 22,-101 56,-212 98,-323 127,-338 163,-494 163,-709 0,-108 -2,-122 -37,-217 l -36,-102 -99,-66 -100,-66 -121,-10 c -136,-10 -119,-12 -507,68 -285,60 -310,74 -252,144 17,20 74,99 127,175 78,112 106,163 152,275 53,130 56,144 69,277 l 13,140 -50,125 -49,126 -110,79 c -133,97 -188,114 -308,96 -69,-10 -77,-14 -163,-83 -87,-70 -93,-78 -166,-208 -42,-74 -81,-138 -87,-142 -14,-10 -21,-1 -36,47 -7,22 -41,122 -76,221 -83,239 -310,698 -422,854 -91,127 -246,302 -287,324 -16,9 -64,39 -105,66 l -75,49 h -115 c -98,1 -120,-2 -147,-19 -18,-11 -33,-24 -33,-30 0,-5 -5,-10 -11,-10 -6,0 -32,-19 -59,-41 -45,-38 -52,-50 -84,-148 -34,-103 -35,-109 -27,-201 5,-52 18,-121 30,-153 42,-117 235,-473 354,-652 257,-385 400,-575 571,-757 91,-97 222,-252 298,-353 l 137,-180 25,-102 c 25,-96 26,-109 16,-215 -13,-148 -79,-496 -120,-628 -55,-180 -127,-383 -156,-441 -84,-163 -116,-217 -224,-374 -231,-332 -511,-566 -910,-758 -146,-71 -215,-98 -330,-129 -131,-36 -160,-40 -300,-45 -141,-5 -165,-3 -266,20 -178,41 -259,85 -450,245 l -163,137 -117,184 -116,183 -55,202 -55,201 5,131 c 7,177 50,325 159,546 74,151 83,165 180,269 56,60 135,132 175,161 40,29 73,56 73,60 0,4 5,8 11,8 6,0 25,11 43,25 35,26 147,80 291,138 22,8 105,25 185,36 125,17 164,19 280,10 121,-8 149,-14 268,-55 73,-26 186,-75 251,-111 113,-61 123,-64 203,-69 l 83,-5 53,48 54,48 -11,60 c -9,54 -16,65 -64,110 -43,39 -83,63 -188,108 -210,90 -396,143 -582,167 -149,18 -168,18 -319,4 -148,-13 -173,-18 -307,-65 -138,-47 -158,-58 -356,-186 -115,-75 -328,-217 -473,-315 -195,-134 -279,-185 -330,-202 -37,-13 -179,-73 -316,-135 -192,-86 -258,-111 -291,-111 -24,0 -81,-13 -127,-29 -49,-17 -116,-32 -164,-35 l -81,-7 -97,52 c -159,85 -205,165 -192,333 4,57 15,105 38,161 48,120 211,315 405,483 292,254 524,485 562,560 17,33 18,45 9,79 -9,36 -16,43 -54,58 -43,16 -45,16 -96,-8 -35,-16 -149,-107 -328,-262 -234,-202 -307,-258 -487,-377 -117,-77 -213,-145 -213,-151 0,-6 -3,-8 -6,-5 -3,4 -58,-15 -122,-41 -161,-66 -303,-89 -435,-71 -50,7 -101,16 -112,20 -11,4 -51,36 -88,71 l -67,64 -19,88 c -18,86 -18,90 1,169 39,168 149,305 441,550 241,202 533,463 551,491 8,12 16,39 17,59 3,30 -2,43 -25,67 -71,75 -174,38 -456,-164 -102,-73 -257,-173 -345,-223 -140,-79 -182,-97 -340,-147 l -180,-58 -175,-1 c -212,-1 -259,10 -342,82 -52,44 -57,54 -101,172 l -46,125 20,120 c 20,119 20,120 66,167 59,60 118,76 348,92 155,12 186,17 355,66 161,46 210,65 374,147 l 190,95 134,127 c 118,111 139,136 174,205 27,55 44,105 53,160 7,45 16,93 20,108 10,39 -36,118 -90,156 -34,24 -70,36 -156,53 -105,21 -118,22 -238,9 -187,-19 -339,-69 -501,-168 -151,-91 -204,-137 -526,-454 -235,-232 -255,-249 -320,-276 -64,-26 -75,-28 -149,-21 -101,9 -358,103 -523,191 -61,32 -112,56 -112,51 0,-4 -4,-3 -8,3 -4,6 -57,36 -118,67 -146,73 -488,315 -679,482 -83,71 -212,195 -287,275 -218,232 -590,707 -843,1078 -121,178 -223,328 -227,335 -4,7 -92,161 -194,342 -233,411 -494,916 -658,1272 -69,150 -130,281 -136,290 -5,10 -27,61 -49,113 -275,667 -335,851 -506,1567 -74,309 -135,578 -135,599 0,24 9,48 25,69 49,65 93,19 131,-135 34,-141 329,-784 499,-1091 276,-497 461,-782 762,-1175 13,-16 48,-63 80,-104 31,-41 154,-181 273,-310 434,-472 967,-928 1600,-1372 321,-225 409,-281 730,-463 201,-115 371,-208 378,-208 6,0 12,-4 12,-8 0,-22 359,-203 825,-417 812,-373 865,-394 1530,-623 311,-107 994,-320 1005,-314 5,3 10,1 12,-5 5,-14 886,-260 932,-260 29,1 49,8 69,25 26,23 27,28 27,117 0,69 -7,115 -25,177 -20,67 -25,108 -25,190 0,59 -12,234 -26,391 -25,273 -49,962 -46,1339 v 124 l 39,39 c 38,37 40,38 118,40 44,1 141,1 215,-1 95,-2 467,21 1260,78 1020,73 1154,85 1440,125 173,25 458,61 634,81 382,43 410,41 470,-30 33,-40 36,-49 36,-105 0,-57 3,-66 46,-125 32,-46 57,-98 85,-184 23,-69 57,-146 80,-181 22,-34 56,-93 75,-132 117,-232 338,-511 577,-729 98,-89 141,-120 250,-180 113,-62 155,-78 290,-116 155,-42 159,-43 317,-43 149,0 176,3 389,45 209,41 248,52 447,127 169,64 265,108 427,195 203,110 592,356 652,413 17,16 134,119 261,229 211,182 250,221 433,433 111,128 214,247 230,263 15,17 132,174 259,350 190,264 265,379 427,655 354,601 589,1107 833,1791 66,185 122,345 124,355 2,10 5,21 9,24 3,3 35,90 73,195 37,104 75,199 85,210 12,12 43,119 85,285 62,248 86,327 109,358 10,13 27,16 27,5 z m -3026,-2408 c 29,-12 42,-27 58,-63 11,-25 94,-143 183,-262 163,-216 446,-534 578,-648 116,-100 126,-110 188,-194 85,-114 85,-115 55,-168 -20,-35 -33,-46 -68,-57 -38,-11 -44,-10 -52,5 -10,19 -104,118 -386,407 -169,173 -227,242 -431,510 -285,375 -289,381 -289,423 0,29 5,35 43,52 45,20 62,20 121,-5 z m -431,-191 c 29,-15 60,-34 71,-43 10,-9 90,-114 178,-234 200,-271 452,-556 704,-794 271,-257 318,-337 242,-410 -51,-48 -87,-47 -148,5 -28,24 -74,73 -104,110 -29,37 -188,211 -352,387 -319,341 -447,498 -582,715 -47,74 -98,154 -113,177 -33,48 -37,80 -11,99 26,20 57,17 115,-12 z m -3422,-1000 c 20,-4 41,-15 48,-27 12,-18 10,-23 -10,-38 -20,-15 -43,-19 -135,-19 -73,0 -227,-15 -450,-45 -418,-55 -911,-106 -1769,-184 -788,-72 -1000,-88 -1288,-96 -120,-3 -230,-8 -246,-11 -25,-5 -29,-3 -35,26 -5,26 0,39 24,70 27,35 34,38 112,48 46,7 144,12 218,12 441,0 1617,65 1628,90 1,4 13,5 25,3 18,-3 950,88 1582,156 193,21 245,23 296,15 z m -5635,-18 c 11,-4 31,-20 44,-38 22,-30 23,-36 16,-157 -4,-69 -13,-169 -21,-221 -11,-69 -16,-237 -21,-620 -5,-460 -4,-572 15,-905 25,-450 25,-475 7,-501 -14,-18 -15,-19 -48,-1 -50,28 -99,101 -114,171 -8,36 -13,130 -14,226 0,91 -7,336 -16,545 -12,307 -13,435 -4,670 19,522 30,729 41,765 12,40 56,82 79,76 8,-3 24,-7 36,-10 z m 454,-66 c 10,-5 28,-23 39,-38 l 20,-29 -20,-104 c -17,-88 -23,-218 -44,-834 -26,-789 -24,-910 15,-1219 27,-217 27,-282 -2,-307 -32,-26 -60,-23 -90,9 -39,41 -46,78 -63,327 -9,127 -27,385 -40,575 l -24,345 16,485 c 15,443 18,487 35,506 12,14 18,36 18,70 1,97 19,185 43,205 24,20 68,24 97,9 z M 8784,7351 c 27,-27 28,-31 21,-90 -6,-53 -13,-69 -51,-116 -26,-31 -89,-86 -147,-127 -56,-39 -106,-77 -112,-83 -5,-6 -30,-20 -55,-32 -270,-125 -650,-247 -751,-241 -62,3 -73,21 -40,63 11,15 146,131 299,258 340,282 424,334 617,378 137,32 177,30 219,-10 z m 4462,-260 c 39,-15 157,-144 178,-195 9,-21 34,-59 56,-86 100,-120 341,-589 482,-940 74,-185 203,-593 185,-587 -6,2 -17,21 -25,43 -9,24 -28,49 -47,61 -39,26 -263,304 -429,533 -315,436 -395,558 -498,764 l -100,200 7,81 c 6,66 12,87 36,119 16,22 29,37 29,32 0,-4 7,-3 16,2 10,6 28,4 48,-3 17,-7 45,-17 62,-24 z m 3204,-130 c 51,-27 97,-62 143,-109 37,-38 67,-72 67,-76 0,-3 33,-54 74,-113 153,-223 244,-457 262,-668 8,-96 -15,-192 -77,-326 -38,-81 -44,-87 -99,-118 -114,-62 -246,-61 -360,2 -30,17 -100,69 -156,116 -84,72 -113,105 -177,201 -94,141 -166,321 -192,477 -16,96 -16,108 0,204 33,193 115,327 253,409 58,34 75,39 127,40 51,0 71,-6 135,-39 z m -1619,-992 c 67,-52 81,-94 80,-223 -1,-109 -3,-114 -53,-241 -41,-103 -71,-160 -149,-275 -112,-166 -122,-178 -171,-204 -54,-29 -71,-17 -65,47 2,28 9,133 16,232 7,99 24,243 38,320 23,125 32,150 76,232 77,143 147,176 228,112 z"
       id="path2"
       sodipodi:nodetypes="ccscccccscccscccccccccccccccccccccccccccccccccccccssscccccccccccccccccccccccccccccsccccccsccsccccccccscccccccccccccccccccsscccccccccccsccccssccccccccscccccsccccccccsccsccccccccscccccccccccccccscscccccscccccccccccccccscccccccccccsccccccccccccccccccscsccccccccccsssscccccccscccccccccccccccccccccccscsscccccccccccccccccccsscccccccccsccccccccsccccccccssccccccccccssccssssccscsccccsccccsscccccscccsccccscccccsccccccsccccssccccsscscccccscccccssccscccccccccccccccccccccsccccccccccsccccccscccccsccccscccccccccccccscsscccccccccccccsccccccccscccccccccccccccscsscsscsccscccccccccccccccccscccccsccccccccccccccccccsccccccccccccccccccccccccccssccccccccccccccccccccccccccsssccccccccccccscccccccscccccccccccccscccsccccccccccccccccccccscccccccccccccssccccscccccsccccccccssccccccscsccccccccccscccccccsccccccccccsccccccccccccccccsccccccccccccccccsscccccccscscccccccccccccccccccccccccccccccsccccccccccccccccscccscccscccccsccccccssccccccccccsccc" />
    <path
       d="m 16598,19840 c -84,-5 -280,-32 -505,-70 -336,-55 -387,-67 -583,-127 -118,-37 -217,-69 -220,-72 -3,-3 -12,-7 -20,-9 -8,-1 -195,-89 -415,-194 -378,-181 -415,-202 -666,-363 -236,-153 -291,-194 -500,-373 -293,-251 -548,-522 -824,-877 -163,-211 -290,-392 -286,-410 1,-3 -5,-12 -12,-20 -8,-7 -45,-55 -83,-104 -82,-109 -119,-129 -161,-90 -14,13 -35,44 -46,68 -23,52 -194,291 -208,291 -5,0 -8,4 -6,8 6,22 -231,324 -434,552 -279,314 -601,613 -887,825 -100,74 -187,135 -192,135 -4,0 -10,4 -12,9 -17,48 -535,333 -821,451 -285,118 -686,246 -872,279 -66,12 -257,34 -425,50 -280,26 -320,27 -490,18 -167,-8 -192,-12 -261,-38 -88,-34 -111,-63 -88,-113 17,-36 104,-80 190,-95 40,-7 252,-83 540,-195 432,-167 493,-194 689,-300 178,-97 252,-144 425,-273 116,-86 266,-204 335,-262 371,-313 771,-739 1051,-1121 44,-60 88,-112 99,-115 11,-3 46,-56 84,-126 37,-66 108,-180 160,-252 157,-222 451,-725 577,-987 67,-139 153,-299 211,-391 86,-137 98,-162 98,-201 0,-36 8,-55 45,-106 25,-35 81,-141 124,-236 43,-95 93,-194 110,-220 31,-45 35,-47 74,-44 36,3 45,9 68,43 15,22 43,85 62,140 19,55 102,242 184,415 296,624 631,1210 1000,1749 411,600 622,843 1148,1317 321,289 352,314 565,457 395,265 832,472 1402,662 135,46 269,95 296,111 43,24 52,34 65,78 19,57 14,68 -52,109 -33,20 -49,22 -216,23 -99,1 -242,-2 -317,-6 z m -48,-189 c 0,-5 -6,-13 -12,-18 -18,-14 -160,-68 -249,-95 -57,-17 -180,-82 -477,-252 l -401,-229 -368,-281 -368,-281 -310,-326 c -457,-480 -596,-644 -753,-886 -471,-724 -864,-1429 -1120,-2008 -19,-44 -55,-111 -79,-149 -41,-63 -46,-67 -60,-53 -9,9 -23,44 -32,79 -18,71 -315,658 -333,658 -6,0 -9,3 -5,6 6,6 -45,116 -66,143 -6,7 -12,18 -13,25 -2,16 -230,450 -262,500 -14,22 -31,50 -37,61 -6,11 -90,148 -185,305 -143,234 -220,345 -426,620 -228,302 -279,364 -521,621 -240,257 -301,315 -580,555 -283,245 -333,283 -550,425 -196,129 -284,179 -488,279 -138,67 -313,146 -390,176 -162,63 -205,84 -205,100 0,31 57,31 168,-1 48,-13 239,-54 425,-90 l 337,-66 328,-124 c 312,-118 340,-131 602,-275 257,-141 292,-163 525,-341 138,-104 291,-229 342,-277 50,-48 146,-139 213,-202 67,-63 220,-223 341,-356 235,-257 335,-393 607,-819 137,-214 168,-250 227,-259 40,-6 40,-6 108,77 40,47 90,123 118,180 34,67 93,153 189,277 77,98 140,183 140,189 0,6 4,11 8,11 5,0 90,105 190,233 150,193 215,266 384,433 669,662 1385,1086 2193,1299 359,94 845,173 845,136 z"
       id="path4" />
    <path
       d="m 12479,6320 c -51,-26 -58,-34 -86,-97 -17,-37 -51,-138 -76,-224 -39,-135 -55,-174 -123,-293 -84,-147 -106,-176 -132,-176 -28,1 -101,116 -138,216 -18,52 -56,128 -85,171 -45,67 -63,85 -128,125 l -76,46 -365,57 c -200,31 -502,80 -670,109 -368,64 -408,65 -465,6 -36,-37 -37,-40 -30,-88 9,-66 39,-94 141,-131 69,-25 110,-32 285,-46 177,-15 253,-28 577,-95 340,-72 377,-82 430,-114 60,-36 132,-126 132,-164 0,-10 11,-29 24,-42 14,-12 68,-95 122,-184 73,-122 107,-169 140,-193 47,-36 63,-38 147,-22 49,10 63,19 110,68 72,76 330,525 388,676 42,108 43,112 40,218 -3,124 -17,169 -61,192 -37,19 -35,19 -101,-15 z"
       id="path6" />
  </g>
</svg>
