<?xml version="1.0" encoding="UTF-8" standalone="no"?>
<!-- Created with Inkscape (http://www.inkscape.org/) -->

<svg
   width="247.75885mm"
   height="21.4321mm"
   viewBox="0 0 247.75885 21.432101"
   version="1.1"
   id="svg8"
   inkscape:version="1.2.2 (732a01da63, 2022-12-09)"
   sodipodi:docname="frame_1.svg"
   xmlns:inkscape="http://www.inkscape.org/namespaces/inkscape"
   xmlns:sodipodi="http://sodipodi.sourceforge.net/DTD/sodipodi-0.dtd"
   xmlns="http://www.w3.org/2000/svg"
   xmlns:svg="http://www.w3.org/2000/svg"
   xmlns:rdf="http://www.w3.org/1999/02/22-rdf-syntax-ns#"
   xmlns:cc="http://creativecommons.org/ns#"
   xmlns:dc="http://purl.org/dc/elements/1.1/">
  <defs
     id="defs2" />
  <sodipodi:namedview
     id="base"
     pagecolor="#ffffff"
     bordercolor="#666666"
     borderopacity="1.0"
     inkscape:pageopacity="0.0"
     inkscape:pageshadow="2"
     inkscape:zoom="2.8"
     inkscape:cx="521.96428"
     inkscape:cy="15.357143"
     inkscape:document-units="mm"
     inkscape:current-layer="layer1-0-0"
     showgrid="false"
     inkscape:window-width="1920"
     inkscape:window-height="1027"
     inkscape:window-x="-8"
     inkscape:window-y="-8"
     inkscape:window-maximized="1"
     inkscape:showpageshadow="2"
     inkscape:pagecheckerboard="0"
     inkscape:deskcolor="#d1d1d1" />
  <metadata
     id="metadata5">
    <rdf:RDF>
      <cc:Work
         rdf:about="">
        <dc:format>image/svg+xml</dc:format>
        <dc:type
           rdf:resource="http://purl.org/dc/dcmitype/StillImage" />
      </cc:Work>
    </rdf:RDF>
  </metadata>
  <g
     inkscape:label="Layer 1"
     inkscape:groupmode="layer"
     id="layer1"
     transform="translate(17.6548,-246.36476)">
    <g
       transform="translate(463.1411,49.526167)"
       id="layer1-0-0"
       inkscape:label="Layer 1">
      <path
         style="opacity:1;fill:#dadabf;fill-opacity:0.596078;stroke:none;stroke-width:0.3;stroke-miterlimit:4;stroke-dasharray:none;stroke-dashoffset:0;stroke-opacity:1"
         d="m -480.66227,207.55476 v -10.71617 l 1.13589,0.66255 c 2.59361,1.5128 9.66488,5.20712 13.02939,6.80707 16.3761,7.78744 28.54798,10.66566 41.02587,9.70118 6.82039,-0.52718 10.29087,-1.13245 25.92515,-4.52146 28.0858,-6.08811 43.30017,-8.17511 70.82642,-9.71549 8.21224,-0.45956 43.95218,-0.45873 53.72118,0.001 15.17083,0.71432 37.91306,2.17469 40.82542,2.62156 l 1.00226,0.15377 v 7.86096 7.86096 h -123.74579 -123.74579 z"
         id="path18645" />
      <path
         style="opacity:1;fill:#dadabf;fill-opacity:0.596078;stroke:none;stroke-width:0.3;stroke-miterlimit:4;stroke-dasharray:none;stroke-dashoffset:0;stroke-opacity:1"
         d="m -480.7959,210.41522 v -7.85547 l 3.00679,0.76847 c 25.89231,6.61746 51.96409,9.64596 75.74319,8.79834 17.19785,-0.61303 27.97946,-1.87193 57.29021,-6.68941 34.60958,-5.68839 46.5649,-6.93773 66.41648,-6.94058 12.33775,-0.002 20.52944,0.50686 32.44992,2.01483 5.0275,0.636 11.42973,1.61335 12.38454,1.8906 0.43178,0.12537 0.46772,0.74032 0.46772,8.00225 v 7.86644 H -356.91647 -480.7959 Z"
         id="path19442" />
    </g>
  </g>
</svg>
