<?xml version="1.0" encoding="UTF-8" standalone="no"?>
<!-- Created with Inkscape (http://www.inkscape.org/) -->

<svg
   width="11.890019mm"
   height="9.3982563mm"
   viewBox="0 0 11.890019 9.3982568"
   version="1.1"
   id="svg8"
   inkscape:version="1.1.2 (0a00cf5339, 2022-02-04)"
   sodipodi:docname="logo_black_v2.svg"
   xmlns:inkscape="http://www.inkscape.org/namespaces/inkscape"
   xmlns:sodipodi="http://sodipodi.sourceforge.net/DTD/sodipodi-0.dtd"
   xmlns="http://www.w3.org/2000/svg"
   xmlns:svg="http://www.w3.org/2000/svg"
   xmlns:rdf="http://www.w3.org/1999/02/22-rdf-syntax-ns#"
   xmlns:cc="http://creativecommons.org/ns#"
   xmlns:dc="http://purl.org/dc/elements/1.1/">
  <defs
     id="defs2">
    <g
       id="g5679" />
    <clipPath
       id="dc08c45066">
      <path
         id="path5681"
         d="M 0.140625,0 H 297.35937 V 418.5 H 0.140625 Z m 0,0"
         inkscape:connector-curvature="0"
         style="clip-rule:nonzero" />
    </clipPath>
    <clipPath
       id="e2bf3dbf4e">
      <path
         id="path5684"
         d="M 105.88281,41 H 108 v 3 h -2.11719 z m 0,0"
         inkscape:connector-curvature="0"
         style="clip-rule:nonzero" />
    </clipPath>
    <clipPath
       id="1a58dad250">
      <path
         id="path5687"
         d="m 143,3.84375 h 7 V 9 h -7 z m 0,0"
         inkscape:connector-curvature="0"
         style="clip-rule:nonzero" />
    </clipPath>
    <clipPath
       id="ea82e44a63">
      <path
         id="path5690"
         d="m 139,3.84375 h 2 V 6 h -2 z m 0,0"
         inkscape:connector-curvature="0"
         style="clip-rule:nonzero" />
    </clipPath>
    <clipPath
       id="291d5e8dd0">
      <path
         id="path5693"
         d="m 158,3.84375 h 2 V 7 h -2 z m 0,0"
         inkscape:connector-curvature="0"
         style="clip-rule:nonzero" />
    </clipPath>
    <clipPath
       id="f7660de6f4">
      <path
         id="path5696"
         d="M 105.88281,143 H 108 v 3 h -2.11719 z m 0,0"
         inkscape:connector-curvature="0"
         style="clip-rule:nonzero" />
    </clipPath>
    <clipPath
       id="e16a2b7095">
      <path
         id="path5699"
         d="m 143,105.83594 h 7 V 111 h -7 z m 0,0"
         inkscape:connector-curvature="0"
         style="clip-rule:nonzero" />
    </clipPath>
    <clipPath
       id="9e3cad55a7">
      <path
         id="path5702"
         d="m 139,105.83594 h 2 V 108 h -2 z m 0,0"
         inkscape:connector-curvature="0"
         style="clip-rule:nonzero" />
    </clipPath>
    <clipPath
       id="54eef3c7fb">
      <path
         id="path5705"
         d="m 158,105.83594 h 2 V 109 h -2 z m 0,0"
         inkscape:connector-curvature="0"
         style="clip-rule:nonzero" />
    </clipPath>
    <g
       id="g7645" />
    <clipPath
       id="dc08c45066-6">
      <path
         id="path7647"
         d="M 0.140625,0 H 297.35937 V 418.5 H 0.140625 Z m 0,0"
         inkscape:connector-curvature="0"
         style="clip-rule:nonzero" />
    </clipPath>
    <clipPath
       id="e2bf3dbf4e-9">
      <path
         id="path7650"
         d="M 105.88281,41 H 108 v 3 h -2.11719 z m 0,0"
         inkscape:connector-curvature="0"
         style="clip-rule:nonzero" />
    </clipPath>
    <clipPath
       id="1a58dad250-3">
      <path
         id="path7653"
         d="m 143,3.84375 h 7 V 9 h -7 z m 0,0"
         inkscape:connector-curvature="0"
         style="clip-rule:nonzero" />
    </clipPath>
    <clipPath
       id="ea82e44a63-0">
      <path
         id="path7656"
         d="m 139,3.84375 h 2 V 6 h -2 z m 0,0"
         inkscape:connector-curvature="0"
         style="clip-rule:nonzero" />
    </clipPath>
    <clipPath
       id="291d5e8dd0-7">
      <path
         id="path7659"
         d="m 158,3.84375 h 2 V 7 h -2 z m 0,0"
         inkscape:connector-curvature="0"
         style="clip-rule:nonzero" />
    </clipPath>
    <clipPath
       id="f7660de6f4-1">
      <path
         id="path7662"
         d="M 105.88281,143 H 108 v 3 h -2.11719 z m 0,0"
         inkscape:connector-curvature="0"
         style="clip-rule:nonzero" />
    </clipPath>
    <clipPath
       id="e16a2b7095-3">
      <path
         id="path7665"
         d="m 143,105.83594 h 7 V 111 h -7 z m 0,0"
         inkscape:connector-curvature="0"
         style="clip-rule:nonzero" />
    </clipPath>
    <clipPath
       id="9e3cad55a7-2">
      <path
         id="path7668"
         d="m 139,105.83594 h 2 V 108 h -2 z m 0,0"
         inkscape:connector-curvature="0"
         style="clip-rule:nonzero" />
    </clipPath>
    <clipPath
       id="54eef3c7fb-6">
      <path
         id="path7671"
         d="m 158,105.83594 h 2 V 109 h -2 z m 0,0"
         inkscape:connector-curvature="0"
         style="clip-rule:nonzero" />
    </clipPath>
  </defs>
  <sodipodi:namedview
     id="base"
     pagecolor="#ffffff"
     bordercolor="#666666"
     borderopacity="1.0"
     inkscape:pageopacity="0.0"
     inkscape:pageshadow="2"
     inkscape:zoom="5.1640321"
     inkscape:cx="-25.367774"
     inkscape:cy="27.885187"
     inkscape:document-units="mm"
     inkscape:current-layer="g7643"
     showgrid="false"
     inkscape:window-width="1920"
     inkscape:window-height="1132"
     inkscape:window-x="0"
     inkscape:window-y="0"
     inkscape:window-maximized="1"
     inkscape:pagecheckerboard="0"
     inkscape:snap-nodes="false" />
  <metadata
     id="metadata5">
    <rdf:RDF>
      <cc:Work
         rdf:about="">
        <dc:format>image/svg+xml</dc:format>
        <dc:type
           rdf:resource="http://purl.org/dc/dcmitype/StillImage" />
      </cc:Work>
    </rdf:RDF>
  </metadata>
  <g
     inkscape:label="Layer 1"
     inkscape:groupmode="layer"
     id="layer1"
     transform="translate(32.664999,-90.511426)">
    <g
       id="g7643"
       transform="matrix(0.35188917,0,0,0.35188917,-74.259615,45.900225)">
      <g
         id="g6972"
         style="fill:#151f28;fill-opacity:1"
         transform="matrix(0.46922747,0,0,0.46922747,70.836054,71.946136)">
        <g
           id="g6970"
           transform="translate(142.56266,151.6403)"
           style="fill:#151f28;fill-opacity:1">
          <g
             id="g6968"
             style="fill:#151f28;fill-opacity:1">
            <path
               id="path6966"
               d="m 11.6875,-6.921875 c 0,0.523437 -0.570312,1.105469 -1.703125,1.75 0.195313,0.210937 0.359375,0.46875 0.484375,0.78125 0.132812,0.3125 0.203125,0.554687 0.203125,0.71875 0,0.742187 -0.25,1.414063 -0.75,2.015625 -0.492187,0.605469 -1.039063,1.0625 -1.640625,1.375 C 6.875,0.4375 5.453125,0.796875 4.015625,0.796875 3.492188,0.796875 2.988281,0.71875 2.5,0.5625 2.007812,0.40625 1.617188,0.164062 1.328125,-0.15625 0.898438,-0.625 0.6875,-1.164062 0.6875,-1.78125 c 0,-0.675781 0.269531,-1.300781 0.8125,-1.875 0.71875,-0.757812 1.921875,-1.160156 3.609375,-1.203125 0.382813,-0.00781 0.632813,-0.019531 0.75,-0.03125 C 5.171875,-5.484375 4.617188,-6.207031 4.203125,-7.0625 4.003906,-7.476562 3.90625,-7.878906 3.90625,-8.265625 c 0,-0.382813 0.113281,-0.738281 0.34375,-1.0625 0.226562,-0.320313 0.6875,-0.566406 1.375,-0.734375 0.414062,-0.09375 0.753906,-0.140625 1.015625,-0.140625 0.257813,0 0.488281,0.02734 0.6875,0.07813 0.207031,0.05469 0.453125,0.167969 0.734375,0.34375 0.289062,0.167969 0.515625,0.351562 0.671875,0.546875 0.269531,-0.320313 0.503906,-0.488281 0.703125,-0.5 0.15625,-0.039068 0.285156,-0.01563 0.390625,0.07812 0.101563,0.085938 0.09375,0.195312 -0.03125,0.328125 C 9.753906,-9.296875 9.65625,-9.21875 9.5,-9.09375 8.820312,-8.539062 8.484375,-8.070312 8.484375,-7.6875 c 0,0.125 0.03125,0.242188 0.09375,0.34375 0.070313,0.09375 0.066406,0.152344 -0.015625,0.171875 -0.074219,0.023437 -0.148438,0 -0.21875,-0.0625 C 8.269531,-7.304688 8.234375,-7.53125 8.234375,-7.90625 c 0,-0.375 0.09375,-0.71875 0.28125,-1.03125 -0.25,-0.269531 -0.554687,-0.476562 -0.90625,-0.625 -0.355469,-0.15625 -0.632813,-0.234375 -0.828125,-0.234375 -0.898438,0 -1.40625,0.398437 -1.53125,1.1875 -0.023438,0.199219 -0.03125,0.453125 -0.03125,0.765625 0,0.3125 0.085938,0.742188 0.265625,1.28125 0.1875,0.53125 0.394531,0.953125 0.625,1.265625 0.226563,0.304687 0.332031,0.496094 0.3125,0.578125 -0.023437,0.074219 -0.132813,0.121094 -0.328125,0.140625 -0.980469,0.117187 -1.929688,0.417969 -2.84375,0.90625 -0.542969,0.261719 -0.953125,0.585937 -1.234375,0.96875 -0.28125,0.375 -0.421875,0.757813 -0.421875,1.140625 0,0.375 0.113281,0.730469 0.34375,1.0625 0.226562,0.335938 0.554688,0.5703125 0.984375,0.71875 0.425781,0.144531 0.789063,0.21875 1.09375,0.21875 1.457031,0 2.738281,-0.375 3.84375,-1.125 C 8.753906,-1.28125 9.375,-2.148438 9.71875,-3.296875 9.8125,-3.660156 9.859375,-4.007812 9.859375,-4.34375 c 0,-0.332031 -0.03125,-0.570312 -0.09375,-0.71875 -0.21875,0.125 -0.574219,0.324219 -1.0625,0.59375 -0.492187,0.261719 -0.851563,0.464844 -1.078125,0.609375 -0.460938,0.28125 -0.871094,0.65625 -1.234375,1.125 -0.355469,0.460937 -0.53125,0.792969 -0.53125,1 0,0.210937 0.054687,0.359375 0.171875,0.453125 0.113281,0.09375 0.179688,0.167969 0.203125,0.21875 0.03125,0.054688 0.023437,0.089844 -0.015625,0.109375 -0.03125,0.011719 -0.101562,0 -0.203125,-0.03125 -0.3125,-0.101563 -0.46875,-0.476563 -0.46875,-1.125 0,-0.363281 0.082031,-0.707031 0.25,-1.03125 0.238281,-0.457031 1.101563,-1.054687 2.59375,-1.796875 L 9.625,-5.5625 c 0.925781,-0.457031 1.5,-0.835938 1.71875,-1.140625 0.09375,-0.132813 0.140625,-0.25 0.140625,-0.34375 0,-0.09375 -0.01563,-0.175781 -0.04687,-0.25 -0.03125,-0.070313 -0.02734,-0.109375 0.01563,-0.109375 0.05078,0 0.101563,0.039062 0.15625,0.109375 0.05078,0.125 0.07813,0.25 0.07813,0.375 z m 0,0"
               inkscape:connector-curvature="0"
               style="fill:#151f28;fill-opacity:1" />
          </g>
        </g>
      </g>
      <g
         id="g6964"
         style="fill:#151f28;fill-opacity:1"
         transform="translate(1.3688012,-11.122463)">
        <g
           id="g6962"
           transform="translate(114.64744,153.71125)">
          <g
             id="g6960">
            <path
               id="path6958"
               d="M 2.234375,-8.53125 2.1875,-8.96875 c 0,-1.289062 0.554688,-2.441406 1.671875,-3.453125 2.007813,-1.789063 5.25,-2.894531 9.71875,-3.3125 0.6875,-0.05078 1.484375,-0.07813 2.390625,-0.07813 0.914062,0 2.070312,0.136719 3.46875,0.40625 1.394531,0.261719 2.546875,0.75 3.453125,1.46875 1.4375,1.179688 2.15625,2.71875 2.15625,4.625 0,1.90625 -0.570313,3.667969 -1.703125,5.28125 -1.136719,1.605469 -2.578125,2.851562 -4.328125,3.734375 -1.742187,0.875 -3.605469,1.3125 -5.59375,1.3125 -1.992187,0 -3.601563,-0.46875 -4.828125,-1.40625 C 8.570312,-0.367188 8.484375,-0.210938 8.328125,0.078125 8.171875,0.378906 8.007812,0.664062 7.84375,0.9375 7,2.28125 6.242188,2.460938 5.578125,1.484375 5.191406,0.921875 5,0.242188 5,-0.546875 c 0,-0.789063 0.082031,-1.75 0.25,-2.875 0.00781,-0.113281 -0.0625,-0.375 -0.21875,-0.78125 -0.0625,-0.175781 0,-0.359375 0.1875,-0.546875 0.144531,-0.113281 0.347656,-0.207031 0.609375,-0.28125 0.269531,-0.070312 0.457031,-0.070312 0.5625,0 0.101563,0.074219 0.082031,0.273438 -0.0625,0.59375 -0.148437,0.324219 -0.21875,0.625 -0.21875,0.90625 0,0.273438 0.28125,0.683594 0.84375,1.234375 C 7.523438,-1.753906 7.875,-1.46875 8,-1.4375 c 0.445312,-1.082031 1.390625,-3.113281 2.828125,-6.09375 0.164063,-0.332031 0.25,-0.582031 0.25,-0.75 0,-0.164062 -0.02344,-0.296875 -0.0625,-0.390625 0.09375,-0.53125 0.675781,-1.375 1.75,-2.53125 1.082031,-1.164063 1.953125,-1.75 2.609375,-1.75 0.257812,0 0.582031,0.08984 0.96875,0.265625 0.382812,0.179688 0.601562,0.421875 0.65625,0.734375 0,0.105469 -0.01172,0.164063 -0.03125,0.171875 -0.01172,0.01172 -0.05469,0 -0.125,-0.03125 -0.07422,-0.03906 -0.132812,-0.0625 -0.171875,-0.0625 -0.585937,0 -1.277344,0.433594 -2.078125,1.296875 -0.804688,0.855469 -1.601562,1.96875 -2.390625,3.34375 -1.398437,2.398437 -2.523437,4.511719 -3.375,6.34375 1.144531,0.8359375 2.390625,1.25 3.734375,1.25 1.75,0 3.421875,-0.4453125 5.015625,-1.34375 1.601563,-0.90625 2.894531,-1.945313 3.875,-3.125 1.582031,-1.9375 2.375,-3.84375 2.375,-5.71875 0,-1.382813 -0.546875,-2.617187 -1.640625,-3.703125 -1.09375,-1.082031 -2.828125,-1.660156 -5.203125,-1.734375 -0.117187,0 -0.230469,0 -0.34375,0 -1.875,0 -3.855469,0.308594 -5.9375,0.921875 -2.074219,0.617188 -3.851563,1.496094 -5.328125,2.640625 -1.46875,1.136719 -2.203125,2.324219 -2.203125,3.5625 0,0.3125 0.09375,0.589844 0.28125,0.828125 0.195313,0.242188 0.398437,0.40625 0.609375,0.5 0.21875,0.085938 0.488281,0.183594 0.8125,0.296875 0.320312,0.117187 0.53125,0.195313 0.625,0.234375 0.101562,0.042969 0.164062,0.09375 0.1875,0.15625 0.039062,0.148438 -0.089844,0.21875 -0.390625,0.21875 -0.679687,-0.050781 -1.367187,-0.300781 -2.0625,-0.75 -0.6875,-0.457031 -1.03125,-0.988281 -1.03125,-1.59375 0,-0.09375 0.00781,-0.1875 0.03125,-0.28125 z M 5.96875,-2.484375 C 5.96875,0.00390625 6.140625,1.25 6.484375,1.25 6.742188,1.25 7.113281,0.601562 7.59375,-0.6875 7.625,-0.738281 7.640625,-0.773438 7.640625,-0.796875 c -0.125,-0.113281 -0.398437,-0.382813 -0.8125,-0.8125 -0.40625,-0.4375 -0.695313,-0.726563 -0.859375,-0.875 z m 0,0"
               inkscape:connector-curvature="0" />
          </g>
        </g>
      </g>
      <g
         id="g6980"
         style="fill:#151f28;fill-opacity:1"
         transform="translate(-27.803537,-2.851967)">
        <g
           id="g6978"
           transform="translate(154.53075,153.71125)">
          <g
             id="g6976">
            <path
               id="path6974"
               d="m 19.25,0.6875 c -0.574219,0 -0.992188,-0.25 -1.25,-0.75 C 17.738281,-0.570312 17.609375,-1.21875 17.609375,-2 c 0,-0.78125 0.164063,-1.851562 0.5,-3.21875 -0.648437,-0.050781 -1.742187,-0.179688 -3.28125,-0.390625 -2.5625,3.167969 -4.6875,5.371094 -6.375,6.609375 -1.460937,1.082031 -2.96875,1.625 -4.53125,1.625 -1,0 -1.855469,-0.25 -2.5625,-0.75 -0.710937,-0.5 -1.0625,-1.234375 -1.0625,-2.203125 0,-0.1875 0.046875,-0.359375 0.140625,-0.515625 C 0.53125,-1 0.625,-1.039062 0.71875,-0.96875 c 0.09375,0.074219 0.140625,0.289062 0.140625,0.640625 0,0.625 0.238281,1.09375 0.71875,1.40625 0.488281,0.3125 1.085937,0.46875 1.796875,0.46875 1.5,0 2.976562,-0.496094 4.4375,-1.484375 1.46875,-0.976562 3.460938,-2.90625 5.984375,-5.78125 -2.699219,-0.332031 -4.480469,-0.5 -5.34375,-0.5 -2.34375,0 -3.792969,0.765625 -4.34375,2.296875 C 4.035156,-3.710938 4,-3.519531 4,-3.34375 4,-3.175781 4.035156,-3.019531 4.109375,-2.875 4.179688,-2.738281 4.195312,-2.628906 4.15625,-2.546875 4.113281,-2.460938 4.035156,-2.425781 3.921875,-2.4375 3.804688,-2.445312 3.710938,-2.507812 3.640625,-2.625 3.441406,-2.96875 3.34375,-3.304688 3.34375,-3.640625 c 0,-1.144531 0.203125,-1.988281 0.609375,-2.53125 0.414063,-0.539063 0.898437,-0.882813 1.453125,-1.03125 0.664062,-0.1875 1.441406,-0.28125 2.328125,-0.28125 0.882813,0 3.109375,0.351563 6.671875,1.046875 1,-1.132812 2.507812,-2.96875 4.53125,-5.5 2.03125,-2.53125 3.046875,-3.816406 3.046875,-3.859375 H 22 c 0.01953,-0.0078 0.06641,-0.03516 0.140625,-0.07813 0.445313,-0.257812 0.925781,-0.390625 1.4375,-0.390625 0.1875,0 0.28125,0.09375 0.28125,0.28125 0,0.02344 -0.01172,0.04687 -0.03125,0.07813 -0.02344,0.02344 -0.04297,0.05859 -0.0625,0.109375 -0.01172,0.04297 -0.02734,0.07813 -0.04687,0.109375 -1.773438,2.929688 -3.140625,6.226562 -4.109375,9.890625 l -0.09375,0.1875 0.6875,0.03125 c 0.15625,0.023437 0.421875,0.03125 0.796875,0.03125 0.375,0 0.769531,-0.085937 1.1875,-0.265625 0.425781,-0.175781 0.695312,-0.363281 0.8125,-0.5625 0.125,-0.207031 0.234375,-0.253906 0.328125,-0.140625 0.09375,0.117187 0.101563,0.234375 0.03125,0.359375 -0.210937,0.367188 -0.570313,0.632812 -1.078125,0.796875 -0.4375,0.1875 -0.875,0.28125 -1.3125,0.28125 -0.429688,0 -0.710938,0 -0.84375,0 l -0.75,-0.03125 c -0.34375,1.605469 -0.515625,2.882813 -0.515625,3.828125 0,0.949219 0.253906,1.421875 0.765625,1.421875 0.5,0 1.269531,-0.394531 2.3125,-1.1875 1.050781,-0.789063 2.039062,-1.8125 2.96875,-3.0625 0.05078,-0.070313 0.125,-0.085937 0.21875,-0.046875 0.09375,0.03125 0.140625,0.074219 0.140625,0.125 0,0.054688 -0.01563,0.121094 -0.04687,0.203125 -0.02344,0.085937 -0.164062,0.292969 -0.421875,0.625 -0.773437,1.03125 -1.71875,2.007813 -2.84375,2.921875 C 21.140625,0.363281 20.238281,0.6875 19.25,0.6875 Z m 1.515625,-13.890625 c 0.01953,-0.03125 0.03906,-0.07813 0.0625,-0.140625 0.03125,-0.07031 0.05469,-0.125 0.07813,-0.15625 -2.304688,3.148438 -4.15625,5.574219 -5.5625,7.28125 L 18.25,-5.75 c 0.507812,-2 1.347656,-4.484375 2.515625,-7.453125 z m 0,0"
               inkscape:connector-curvature="0" />
          </g>
        </g>
      </g>
    </g>
  </g>
</svg>
