<?xml version="1.0" encoding="UTF-8" standalone="no"?>
<!-- Created with Inkscape (http://www.inkscape.org/) -->

<svg
   version="1.1"
   id="svg2"
   xml:space="preserve"
   width="642.60278"
   height="552.83527"
   viewBox="0 0 642.60278 552.83527"
   sodipodi:docname="logo_fsk_cierne.svg"
   inkscape:version="1.1.2 (0a00cf5339, 2022-02-04)"
   xmlns:inkscape="http://www.inkscape.org/namespaces/inkscape"
   xmlns:sodipodi="http://sodipodi.sourceforge.net/DTD/sodipodi-0.dtd"
   xmlns="http://www.w3.org/2000/svg"
   xmlns:svg="http://www.w3.org/2000/svg"><defs
     id="defs6" /><sodipodi:namedview
     id="namedview4"
     pagecolor="#ffffff"
     bordercolor="#666666"
     borderopacity="1.0"
     inkscape:pageshadow="2"
     inkscape:pageopacity="0.0"
     inkscape:pagecheckerboard="0"
     showgrid="false"
     inkscape:zoom="0.91850218"
     inkscape:cx="514.96884"
     inkscape:cy="218.29017"
     inkscape:window-width="1920"
     inkscape:window-height="1132"
     inkscape:window-x="1920"
     inkscape:window-y="0"
     inkscape:window-maximized="1"
     inkscape:current-layer="g10" /><g
     id="g8"
     inkscape:groupmode="layer"
     inkscape:label="logo_fsk_cierne"
     transform="matrix(1.3333333,0,0,1.3333333,-1.133007,-80.617391)"><g
       id="g10"><path
         d="m 87.492,474.125 c -4.051,-1.621 -6.094,-9.633 -3.816,-15.105 1.777,-4.321 4.66,-5.758 22.918,-11.489 54.094,-16.98 120.836,-49.004 145.984,-70.062 9.258,-7.746 20.902,-3.664 20.902,7.355 0,4.926 -1.527,7.364 -8.418,13.442 -22.464,19.765 -84.214,50.089 -140.57,69.015 -22.297,7.496 -31.242,9.149 -37,6.844 z M 391.73,462.711 c -4.429,-2.883 -14.515,-7.856 -22.402,-11.051 -13.672,-5.535 -15.422,-5.801 -38.508,-5.832 -21.5,-0.031 -25.191,0.418 -33.129,4.082 -4.91,2.262 -10.66,5.738 -12.785,7.735 -5.625,5.3 -16.676,4.085 -20.183,-2.196 -6.118,-10.945 7.058,-23.137 32.953,-30.508 7.871,-2.246 14.652,-4.293 15.043,-4.57 0.394,-0.266 -1.961,-5.941 -5.239,-12.613 -8.292,-16.946 -27,-35.403 -44.738,-44.137 -13.969,-6.871 -40.972,-13.543 -55.547,-13.73 -11.66,-0.141 -23.48,-2.746 -25.269,-5.567 -2.797,-4.41 -1.75,-13.406 1.945,-16.742 3.133,-2.84 5.629,-3.059 21.027,-1.934 9.625,0.7 21.766,2.071 27.02,3.04 8.996,1.667 10.102,1.453 19.719,-3.977 32.242,-18.149 59.523,-49.199 70.734,-80.52 4.504,-12.582 8.914,-15.902 18.113,-13.593 7.188,1.804 9.028,8.543 5.364,19.738 -9.899,30.195 -33.176,61.035 -62.922,83.312 l -9.367,7.012 7.546,4.461 7.563,4.457 10.551,-7.406 c 14.234,-9.992 38.258,-35.824 45.945,-49.418 11.863,-21.031 13.094,-22.496 19.469,-23.106 7.699,-0.746 12.769,3.758 12.769,11.332 0,12.93 -29.808,53.692 -52.617,71.965 -7.027,5.629 -13.515,10.848 -14.402,11.598 -0.906,0.762 1.637,5.598 5.672,10.852 7.093,9.195 21.922,37.558 21.922,41.89 0,2.633 4.097,4.32 10.492,4.32 15.183,0 60.113,19.063 65.972,27.997 5.071,7.73 -0.777,18.691 -9.847,18.472 -2.641,-0.058 -8.438,-2.476 -12.864,-5.363 z M 4.762,453.859 c -8.434,-8.421 -2.7,-18.57 12.097,-21.484 29.883,-5.879 92.821,-25.77 125.606,-39.707 21.887,-9.289 45.285,-21.016 60.269,-30.199 13.067,-7.996 18.895,-8.852 24.164,-3.567 4.754,4.735 4.555,11.754 -0.468,16.774 -11.489,11.472 -75.219,41.668 -119.246,56.48 -35.715,12.02 -85.633,25.285 -95.176,25.285 -2.024,0 -5.281,-1.621 -7.246,-3.582 z m 365.64,-54.66 c -9.429,-2.945 -25.707,-13.812 -29.621,-19.769 -5.426,-8.293 -3.695,-12.672 11.539,-29.18 7.883,-8.547 18.16,-21.156 22.84,-28.035 9.805,-14.403 15.449,-17.598 22.695,-12.84 10.118,6.641 2.102,25.656 -21.558,51.227 l -9.574,10.332 7.531,3.386 c 4.988,2.246 11.473,3.368 19.219,3.321 30.914,-0.172 58.808,-27.766 64.465,-63.75 3.539,-22.555 -3.79,-42.825 -21.637,-59.864 -15.531,-14.812 -29.375,-20.453 -80.832,-32.941 -46.805,-11.363 -62.844,-16.758 -77.563,-26.109 -16.539,-10.508 -24.566,-23.528 -27.562,-44.653 -4.457,-31.508 10.289,-58.972 38.883,-72.383 9.058,-4.238 12.394,-4.8 29.046,-4.8 17.317,0 19.481,0.406 27.25,4.957 14.68,8.652 18.317,19.129 9.102,26.379 -5.734,4.507 -11.195,3.707 -18.895,-2.778 -6.468,-5.437 -11.878,-6.84 -21.949,-5.719 -24.461,2.758 -41.765,23.274 -39.832,47.239 1.59,19.816 11.676,31.363 35.188,40.269 5.515,2.086 26.562,7.824 46.765,12.735 20.192,4.91 43.325,10.941 51.383,13.422 53.633,16.417 84.137,64.214 73.367,114.878 -9.855,46.336 -45.773,77.625 -88.66,77.25 -7.543,-0.066 -17.258,-1.218 -21.59,-2.574 z M 342.391,181.492 c -5.618,-2.074 -7.411,-5.398 -8.594,-15.98 -1.434,-12.676 -8.543,-24.102 -20.609,-33.114 -8.95,-6.687 -9.399,-7.39 -8.883,-14.312 0.433,-6.016 1.429,-7.719 5.703,-9.758 4.488,-2.137 5.969,-2.09 11.226,0.422 3.321,1.574 9.649,6.223 14.075,10.285 7.062,6.52 8.406,7.11 11.039,4.942 6.718,-5.5 24.879,-32.051 31.461,-46.004 7.589,-16.102 11.91,-19.61 20.218,-16.461 10.539,4.008 9.325,16.73 -3.695,38.289 -3.492,5.785 -6.078,10.773 -5.77,11.097 0.313,0.313 3.774,-0.171 7.688,-1.07 3.93,-0.906 12.16,-1.668 18.32,-1.699 8.852,-0.035 11.957,0.711 14.778,3.535 4.285,4.289 4.691,12.984 0.777,16.898 -3.289,3.29 -1.918,3.012 -17.785,3.618 -13.317,0.515 -35.969,7.125 -48.473,14.156 l -7.074,3.976 0.605,11.004 c 0.329,6.063 0.102,12.629 -0.515,14.579 -1.367,4.3 -9.492,7.449 -14.492,5.597 z"
         style="fill:#000000;fill-opacity:1;fill-rule:nonzero;stroke:none"
         id="path12"
         sodipodi:nodetypes="ccccscccccccccccccccccccccccccccccscccssccccccccccsccccccccccccccccscccccccccsccccccccccccccccccccccc" /></g></g></svg>
